<svg width="64" height="64" viewBox="0 0 64 64" xmlns="http://www.w3.org/2000/svg" role="img" aria-label="WhatsApp">
  <circle cx="32" cy="32" r="30" fill="#25D366"/>
  <path d="M23 18h18c3.866 0 7 3.134 7 7v14c0 3.866-3.134 7-7 7h-5l-8 7v-7h-5c-3.866 0-7-3.134-7-7V25c0-3.866 3.134-7 7-7z" fill="#fff"/>
  <path d="M39.6 35.2c-.4-.2-2.4-1.2-2.8-1.3-.4-.1-.7-.2-1 .2-.3.4-1.1 1.3-1.3 1.5-.2.2-.5.3-.9.1-.4-.2-1.7-.6-3.2-2-1.2-1.1-2-2.5-2.2-2.9-.2-.4 0-.6.2-.8.2-.2.4-.5.6-.7.2-.2.3-.4.4-.7.1-.2 0-.5 0-.7 0-.2-1-2.4-1.4-3.3-.3-.8-.7-.7-1-.7h-.8c-.3 0-.7.1-1 .5-.4.4-1.5 1.4-1.5 3.5s1.5 4.1 1.7 4.4c.2.3 3 4.6 7.4 6.4 1 .4 1.8.6 2.4.8 1 .3 1.9.2 2.6.1.8-.1 2.4-1 2.8-2 .3-1 .3-1.8.2-2-.1-.2-.4-.3-.8-.5z" fill="#25D366"/>
</svg>
