<svg width="1080" height="1920" viewBox="0 0 1080 1920" fill="none" xmlns="http://www.w3.org/2000/svg">
  <rect width="1080" height="1920" fill="#E6DDD6"/>
  <g stroke="#DDD3CC" stroke-width="4" fill="none" opacity="0.9">
    <circle cx="110" cy="160" r="22"/>
    <circle cx="230" cy="110" r="16"/>
    <circle cx="340" cy="190" r="14"/>
    <circle cx="460" cy="130" r="20"/>
    <circle cx="610" cy="200" r="18"/>
    <circle cx="780" cy="125" r="15"/>
    <circle cx="930" cy="185" r="24"/>
    <path d="M65 310l28-26 28 26-28 26-28-26z"/>
    <path d="M200 295h58v40h-58z"/>
    <path d="M340 288l34 58h-68l34-58z"/>
    <path d="M500 300c0-22 18-40 40-40s40 18 40 40-18 40-40 40-40-18-40-40z"/>
    <path d="M660 265h72v72h-72z"/>
    <path d="M835 268c24 0 44 20 44 44s-20 44-44 44-44-20-44-44 20-44 44-44z"/>
    <path d="M980 308l30-30 30 30-30 30-30-30z"/>
    <path d="M120 520c22-26 58-26 80 0"/>
    <path d="M246 520c18-22 50-22 68 0"/>
    <path d="M360 500h90"/>
    <path d="M498 490v72"/>
    <path d="M620 505l32-32 32 32-32 32-32-32z"/>
    <path d="M774 490h86v58h-86z"/>
    <circle cx="960" cy="520" r="26"/>
    <path d="M80 760h84v52H80z"/>
    <path d="M218 746l42 72h-84l42-72z"/>
    <path d="M356 770c0-24 20-44 44-44s44 20 44 44-20 44-44 44-44-20-44-44z"/>
    <path d="M520 730h76v76h-76z"/>
    <path d="M670 742l34 58h-68l34-58z"/>
    <path d="M824 754h82v48h-82z"/>
    <path d="M950 770c0-24 20-44 44-44s44 20 44 44-20 44-44 44-44-20-44-44z"/>
    <path d="M104 1002c22-26 58-26 80 0"/>
    <path d="M248 994h74v48h-74z"/>
    <path d="M398 996l30-30 30 30-30 30-30-30z"/>
    <circle cx="562" cy="1010" r="36"/>
    <path d="M700 976h84v58h-84z"/>
    <path d="M846 974l36 62h-72l36-62z"/>
    <path d="M978 996h70v48h-70z"/>
    <circle cx="150" cy="1260" r="24"/>
    <path d="M286 1236h82v52h-82z"/>
    <path d="M424 1246l34 58h-68l34-58z"/>
    <path d="M570 1248h76v56h-76z"/>
    <circle cx="740" cy="1260" r="30"/>
    <path d="M868 1230h84v64h-84z"/>
    <path d="M1000 1248l28-28 28 28-28 28-28-28z"/>
    <path d="M90 1488h74v46H90z"/>
    <path d="M220 1486l32 54h-64l32-54z"/>
    <circle cx="364" cy="1512" r="32"/>
    <path d="M508 1492h78v52h-78z"/>
    <path d="M650 1496l34 58h-68l34-58z"/>
    <circle cx="820" cy="1510" r="28"/>
    <path d="M950 1486h78v56h-78z"/>
    <path d="M112 1736c18-20 48-20 66 0"/>
    <path d="M250 1720h72v50h-72z"/>
    <path d="M388 1728l30-30 30 30-30 30-30-30z"/>
    <circle cx="550" cy="1740" r="34"/>
    <path d="M692 1718h86v56h-86z"/>
    <path d="M848 1726l34 58h-68l34-58z"/>
    <path d="M982 1732h70v44h-70z"/>
  </g>
</svg>
